<svg id="Capa_1" enable-background="new 0 0 512 512" height="512" viewBox="0 0 512 512" width="512" xmlns="http://www.w3.org/2000/svg"><g id="Speech_Bubble_47_"><g id="_x3C_Path_x3E__6_"><path d="m121 512h-36.214l25.607-25.607c16.513-16.512 25.607-38.466 25.607-61.819v-3.418c-30.357-3.435-58.541-17.271-80.58-39.818-25.42-26.005-39.42-60.219-39.42-96.338 0-29.021 9.471-57.066 26.916-80.365-17.25-19.187-26.916-43.872-26.916-69.635 0-57.897 47.103-105 105-105 20.051 0 39.717 5.964 56.683 17.012 28.355-30.045 67.087-47.012 108.317-47.012 82.71 0 150 67.29 150 150 0 5.026-.316 10.16-.979 15.687 37.386 21.157 60.979 60.942 60.979 104.313 0 66.168-53.832 120-120 120-3.404 0-6.833-.161-10.327-.487-7.396 15.891-18.616 30.087-32.397 40.795-18.264 14.191-39.798 21.692-62.276 21.692-11.771 0-23.271-1.977-34.345-5.893-24.191 40.452-68.141 65.893-115.655 65.893zm0-452c-41.355 0-75 33.645-75 75 0 21.836 9.838 42.645 26.99 57.091l12.046 10.145-10.72 11.538c-18.259 19.653-28.316 44.948-28.316 71.226 0 59 47.103 107 105 107h15v32.574c0 18.355-4.183 36.066-12.098 52.047 27.09-9.079 49.983-29.121 62.334-56.033l6.562-14.297 13.969 7.234c10.86 5.624 22.378 8.475 34.233 8.475 31.313 0 60.454-22.081 70.864-53.696l4.125-12.529 12.953 2.489c6.077 1.168 11.657 1.736 17.058 1.736 49.626 0 90-40.374 90-90 0-35.416-21.015-67.652-53.536-82.126l-10.763-4.79 2.102-11.591c1.499-8.264 2.197-15.094 2.197-21.493 0-66.168-53.832-120-120-120-36.798 0-71.159 17.009-94.274 46.666l-9.746 12.505-11.946-10.423c-14.058-12.265-31.013-18.748-49.034-18.748z"/></g></g></svg>