<?xml version="1.0" encoding="iso-8859-1"?>
<!-- Generator: Adobe Illustrator 19.0.0, SVG Export Plug-In . SVG Version: 6.00 Build 0)  -->
<svg version="1.1" id="Capa_1" xmlns="http://www.w3.org/2000/svg" xmlns:xlink="http://www.w3.org/1999/xlink" x="0px" y="0px"
	 viewBox="0 0 500.552 500.552" style="enable-background:new 0 0 500.552 500.552;" xml:space="preserve">
<g>
	<g>
		<g>
			<path d="M166.323,466.512C46.861,420.186-12.427,285.788,33.899,166.326C59.256,100.939,112.828,50.532,179.635,29.2
				c4.211-1.345,6.533-5.849,5.188-10.06c-1.345-4.211-5.849-6.533-10.06-5.188C44.294,55.636-27.68,195.195,14.004,325.664
				c22.924,71.751,77.215,129.195,147.56,156.128l-4.712,15.2l89.72,3.56l-75.912-47.984L166.323,466.512z"/>
			<path d="M487.112,176.647C464.531,104.085,409.929,45.882,338.955,18.72l4.712-15.16L253.947,0l75.912,47.944L334.195,34
				c119.471,46.303,178.786,180.689,132.483,300.16c-25.572,65.98-79.857,116.682-147.427,137.695
				c-4.219,1.312-6.576,5.797-5.264,10.016c1.312,4.219,5.797,6.576,10.016,5.264C454.784,446.438,527.81,307.427,487.112,176.647z"
				/>
		</g>
	</g>
</g>
<g>
</g>
<g>
</g>
<g>
</g>
<g>
</g>
<g>
</g>
<g>
</g>
<g>
</g>
<g>
</g>
<g>
</g>
<g>
</g>
<g>
</g>
<g>
</g>
<g>
</g>
<g>
</g>
<g>
</g>
</svg>
